<?xml version="1.0" encoding="UTF-8" standalone="no"?>
<!-- Created with Inkscape (http://www.inkscape.org/) -->

<svg
   xmlns:dc="http://purl.org/dc/elements/1.1/"
   xmlns:cc="http://creativecommons.org/ns#"
   xmlns:rdf="http://www.w3.org/1999/02/22-rdf-syntax-ns#"
   xmlns:svg="http://www.w3.org/2000/svg"
   xmlns="http://www.w3.org/2000/svg"
   xmlns:xlink="http://www.w3.org/1999/xlink"
   xmlns:sodipodi="http://sodipodi.sourceforge.net/DTD/sodipodi-0.dtd"
   xmlns:inkscape="http://www.inkscape.org/namespaces/inkscape"
   width="106mm"
   height="48mm"
   viewBox="0 0 106 48"
   version="1.1"
   id="svg8"
   inkscape:version="0.92.2 2405546, 2018-03-11"
   sodipodi:docname="logo.svg"
   inkscape:export-filename="/home/avmo/src/gfdyn/fluidsim/logo.png"
   inkscape:export-xdpi="300"
   inkscape:export-ydpi="300">
  <defs
     id="defs2">
    <clipPath
       clipPathUnits="userSpaceOnUse"
       id="clipPath943">
      <g
         transform="translate(8.63184e-7,3.0714136e-6)"
         inkscape:label="Clip"
         id="use945">
        <path
           style="fill:#02629f;stroke-width:0.35277778"
           d="m 36.985902,215.08407 c -0.582084,-0.25694 -1.375834,-0.82282 -1.763889,-1.2575 -0.6747,-0.75577 -0.710117,-1.36778 -0.809847,-13.9942 l -0.104292,-13.20386 1.223954,-0.5114 c 4.478265,-1.87114 15.583674,-2.19103 26.326943,-0.75835 10.414688,1.38886 23.222377,4.01599 38.305569,7.85729 6.76973,1.72407 16.10506,3.25809 21.66462,3.56 4.1458,0.22515 12.03457,-0.36209 15.52222,-1.15546 7.2105,-1.64024 13.00158,-4.89654 21.16667,-11.90193 7.23128,-6.20421 9.63478,-7.1181 14.31338,-5.44244 2.07726,0.74398 4.97857,1.53179 8.13119,2.2079 0.48302,0.10358 0.82069,0.5203 0.95147,1.17422 0.27376,1.36881 1.51967,2.77802 3.91413,4.42714 1.72515,1.18816 2.40233,1.42487 4.99542,1.74614 l 2.99945,0.37449 2.54415,-1.31534 c 1.39852,-0.72305 3.55984,-1.86486 4.80159,-2.53999 1.24175,-0.67512 2.63581,-1.22749 3.09792,-1.22749 h 0.84019 l -0.0993,14.79121 c -0.0966,14.37962 -0.11987,14.81892 -0.83791,15.78681 -0.40623,0.54757 -1.27936,1.18506 -1.94028,1.41665 -1.85951,0.65156 -163.76571,0.61835 -165.243348,-0.0339 z M 179.72162,176.99439 c -0.47722,-0.57503 -0.1953,-1.49602 0.54489,-1.78006 0.66174,-0.25394 1.88745,0.37705 1.88745,0.97165 0,1.15003 -1.68424,1.70981 -2.43234,0.80841 z"
           id="path7499"
           inkscape:connector-curvature="0"
           sodipodi:nodetypes="ccscssscssscccccscsccccccccsc" />
      </g>
    </clipPath>
    <clipPath
       clipPathUnits="userSpaceOnUse"
       id="clipPath952">
      <use
         x="0"
         y="0"
         xlink:href="#g948"
         id="use954"
         width="100%"
         height="100%" />
    </clipPath>
  </defs>
  <sodipodi:namedview
     id="base"
     pagecolor="#ffffff"
     bordercolor="#666666"
     borderopacity="1.0"
     inkscape:pageopacity="0.0"
     inkscape:pageshadow="2"
     inkscape:zoom="2"
     inkscape:cx="165.73744"
     inkscape:cy="138.0959"
     inkscape:document-units="mm"
     inkscape:current-layer="layer1"
     showgrid="true"
     inkscape:window-width="1920"
     inkscape:window-height="1148"
     inkscape:window-x="1600"
     inkscape:window-y="0"
     inkscape:window-maximized="1"
     showguides="false"
     units="mm"
     height="296mm"
     inkscape:measure-start="0,0"
     inkscape:measure-end="0,0">
    <inkscape:grid
       type="xygrid"
       id="grid4876" />
  </sodipodi:namedview>
  <metadata
     id="metadata5">
    <rdf:RDF>
      <cc:Work
         rdf:about="">
        <dc:format>image/svg+xml</dc:format>
        <dc:type
           rdf:resource="http://purl.org/dc/dcmitype/StillImage" />
        <dc:title></dc:title>
        <cc:license
           rdf:resource="http://creativecommons.org/licenses/by-sa/4.0/" />
      </cc:Work>
      <cc:License
         rdf:about="http://creativecommons.org/licenses/by-sa/4.0/">
        <cc:permits
           rdf:resource="http://creativecommons.org/ns#Reproduction" />
        <cc:permits
           rdf:resource="http://creativecommons.org/ns#Distribution" />
        <cc:requires
           rdf:resource="http://creativecommons.org/ns#Notice" />
        <cc:requires
           rdf:resource="http://creativecommons.org/ns#Attribution" />
        <cc:permits
           rdf:resource="http://creativecommons.org/ns#DerivativeWorks" />
        <cc:requires
           rdf:resource="http://creativecommons.org/ns#ShareAlike" />
      </cc:License>
    </rdf:RDF>
  </metadata>
  <g
     inkscape:label="Bottom"
     inkscape:groupmode="layer"
     id="layer1"
     transform="translate(0,-249)">
    <g
       id="g950"
       clip-path="url(#clipPath952)"
       transform="matrix(0.25222783,0,0,0.25222783,22.82154,217.71139)">
      <g
         inkscape:label="Clip"
         id="g948">
        <path
           style="fill:#a4d7eb;stroke-width:0.35277778"
           d="m 36.633124,215.94591 c -0.388056,-0.16157 -1.181806,-0.79675 -1.763889,-1.41151 l -1.058333,-1.11776 -0.09332,-12.76543 c -0.05132,-7.02098 -0.168174,-12.97108 -0.259668,-13.22244 -0.118048,-0.32431 -1.268988,0.11231 -3.963629,1.50365 -5.603881,2.89348 -8.317936,3.20673 -13.322276,1.53758 -4.061748,-1.35475 -8.3151482,-4.50311 -11.5170795,-8.52492 -2.3363768,-2.93463 -1.7532014,-3.14119 1.4932913,-0.52893 6.7346342,5.41895 12.8324472,7.37837 18.0630092,5.8042 0.893732,-0.26897 3.379588,-1.48002 5.524123,-2.69122 3.74887,-2.1173 3.899156,-2.24771 3.899156,-3.38338 0,-1.47845 -0.08964,-1.42048 8.290278,-5.36115 12.098373,-5.68929 17.264366,-7.45957 23.970439,-8.21417 5.999977,-0.67514 8.359158,-0.13308 25.947617,5.96195 14.891987,5.1606 23.730087,6.32755 35.277787,4.65797 10.49206,-1.51697 18.14974,-3.96005 31.12292,-9.92935 9.72198,-4.47334 15.14857,-5.66781 19.94659,-4.39054 4.10095,1.09169 6.98331,3.62956 10.40172,9.15851 1.88355,3.04648 2.35961,3.57756 3.76353,4.19858 1.54467,0.68328 1.71882,0.68944 4.47447,0.1582 1.57698,-0.30401 4.03973,-1.02151 5.47276,-1.59446 1.43303,-0.57294 2.80394,-0.96627 3.04648,-0.87406 0.65336,0.2484 0.53445,1.66211 -0.19535,2.32257 -1.18596,1.07327 -8.01147,3.06126 -10.51046,3.06126 -3.79948,0 -5.54219,-1.26009 -8.12154,-5.87239 -1.68221,-3.00807 -4.57097,-6.09887 -6.68871,-7.15652 -3.08083,-1.53864 -8.10396,-1.38472 -13.37769,0.40992 -1.16417,0.39616 -4.89479,1.98417 -8.29028,3.5289 -10.2255,4.65196 -16.25606,6.74159 -24.51806,8.49567 -7.27359,1.54423 -9.6694,1.81394 -15.875,1.78714 -9.51598,-0.0411 -12.82236,-0.77942 -31.044445,-6.93215 l -12.7,-4.28819 -4.7625,-0.003 c -4.847513,-0.003 -7.198173,0.33579 -11.288889,1.62864 -5.086714,1.60764 -19.269728,7.98836 -18.439635,8.29571 0.238686,0.0884 1.349936,-0.11063 2.469445,-0.44224 3.081168,-0.91268 14.231966,-1.10829 21.261857,-0.37299 9.590479,1.00313 19.980554,2.95006 34.043056,6.37911 17.737121,4.32508 27.650731,5.23845 38.250261,3.5241 8.79205,-1.42201 15.0539,-4.52657 25.07335,-12.43112 1.84327,-1.45419 4.54202,-3.21717 5.99723,-3.91774 2.43798,-1.1737 2.88139,-1.27057 5.64444,-1.23314 6.73271,0.0913 11.20384,2.58455 13.05096,6.7195 0.10609,0.2375 0.15252,0.71786 0.24123,0.96605 1.73521,0.99564 2.75285,3.33018 4.72405,3.66505 2.7325,0.25568 -1.04821,-0.2091 -1.01362,0.42475 0.0411,0.75281 0.77847,1.60743 0.67107,1.53536 -0.0393,-0.0264 -0.19153,-0.17664 -0.53215,-0.50116 -2.06095,-2.89571 -3.66492,-4.10186 -4.91931,-3.9502 -0.58344,0.0705 -1.63889,0.55993 -1.63889,1.08339 0,0.84432 1.9498,2.82335 4.01772,4.07794 1.3676,0.82971 2.19027,1.04313 4.60064,1.19351 3.22186,0.201 2.61984,0.41781 9.42404,-3.39398 1.09506,-0.61346 2.60318,-1.15228 3.35139,-1.19737 l 1.36037,-0.082 0.089,15.16944 c 0.0858,14.61592 0.0634,15.21141 -0.61413,16.3192 -0.38673,0.63237 -1.22053,1.46521 -1.85289,1.85077 -1.13887,0.69437 -1.92973,0.70081 -83.52337,0.67997 -45.305489,-0.0116 -82.691114,-0.15324 -83.07917,-0.31481 z M 160.94045,197.84568 c -107.293633,66.10288 -53.64682,33.05144 0,0 z M 33.869698,177.59643 c -0.129352,-0.12935 -0.235185,-6.3257 -0.235185,-13.76966 0,-14.9811 0.05199,-15.37815 2.183632,-16.67777 1.162484,-0.70875 1.541564,-0.71197 83.955275,-0.71328 l 82.78752,-0.001 1.13337,0.95366 c 1.98378,1.66925 2.09576,2.33105 2.09576,12.38589 0,10.59771 0.28872,9.79495 -3.97319,11.04708 -2.42594,0.71273 -2.92296,0.7552 -4.35504,0.37218 -2.19136,-0.5861 -3.71887,-1.82933 -6.12622,-4.98607 -2.70757,-3.55041 -5.24373,-5.86096 -7.69362,-7.00922 -1.89946,-0.89028 -2.3055,-0.9438 -6.9561,-0.91695 -5.81074,0.0335 -6.99989,0.38438 -15.16944,4.47531 -10.32583,5.1707 -19.50869,8.4995 -28.575,10.35848 -4.49425,0.92152 -5.58997,1.01269 -12.17083,1.01269 -5.63885,0 -7.8925,-0.14064 -10.23056,-0.63846 -3.97498,-0.84635 -10.03931,-2.88566 -15.806675,-5.31546 -9.936536,-4.18629 -14.921075,-5.51136 -20.73227,-5.51136 -6.692406,0 -12.940507,2.22786 -29.870129,10.65065 -8.813597,4.38492 -9.763464,4.78145 -10.261298,4.28361 z m 11.2959,-7.80663 c 14.69795,-7.28045 20.923077,-9.51204 27.45086,-9.84063 5.957133,-0.29987 11.691394,0.98488 20.226803,4.53175 11.715929,4.86853 16.738719,6.3534 23.581919,6.97143 6.91118,0.62417 15.84349,-0.56947 24.95637,-3.33496 5.72888,-1.73855 9.81988,-3.40957 18.44711,-7.53496 4.03273,-1.92838 8.44349,-3.84494 9.80169,-4.25902 3.51756,-1.07242 8.54219,-1.32018 11.84316,-0.58397 4.49843,1.00328 7.13413,2.8915 11.38448,8.15587 3.24904,4.0242 4.4501,4.87758 6.58537,4.67908 0.87493,-0.0813 2.06556,-0.37565 2.64584,-0.65403 l 1.05504,-0.50614 v -8.49599 c 0,-6.68277 -0.10333,-8.62038 -0.48417,-9.0788 -0.44765,-0.53885 -6.69907,-0.58281 -82.875,-0.58281 -76.170481,0 -82.439543,0.0441 -83.035974,0.58384 -0.600429,0.54338 -0.645139,1.39908 -0.645139,12.34722 0,7.0757 0.13166,11.76338 0.330392,11.76338 0.181715,0 4.110777,-1.87257 8.731249,-4.16126 z"
           id="path925"
           inkscape:connector-curvature="0"
           sodipodi:nodetypes="cccscsccscssscscsccsccccsssccssscccccssscscsccsscssscccccccscccccsccccsscsccscsssssccsssssscsccccscscsss" />
      </g>
    </g>
    <g
       id="g4988">
      <path
         style="fill:#61c9ed;stroke-width:0.08898038"
         d="m 32.01695,272.01951 c -0.6099,-0.30469 -0.622575,-0.38614 -0.622733,-4.00399 -1.16e-4,-2.85281 -0.01609,-3.22554 -0.137939,-3.22554 -0.07582,0 -0.571555,0.22594 -1.101719,0.50211 -0.859501,0.44767 -1.035649,0.50666 -1.626271,0.54458 -1.335181,0.0856 -2.4975,-0.38993 -3.66431,-1.49941 -0.396984,-0.3775 -0.699491,-0.7093 -0.672221,-0.73734 0.02723,-0.028 0.310352,0.13911 0.629074,0.37147 0.812784,0.59253 1.657417,0.98676 2.477599,1.15636 0.899955,0.18601 1.545663,0.07 2.494006,-0.44832 0.367042,-0.20064 0.917587,-0.50074 1.22344,-0.66692 0.499712,-0.27151 0.546372,-0.32028 0.460293,-0.48114 -0.05268,-0.0984 -0.07289,-0.23881 -0.04479,-0.31193 0.05268,-0.13752 2.17387,-1.18877 3.966796,-1.96607 2.207787,-0.95716 3.353159,-1.21741 5.116375,-1.16256 l 1.156749,0.036 3.203286,1.08168 c 1.76181,0.59492 3.523624,1.16059 3.915137,1.25703 2.617175,0.64474 5.363713,0.6029 8.267888,-0.12599 2.0324,-0.51004 3.193959,-0.9331 5.613042,-2.04435 1.698737,-0.78035 2.515504,-1.06264 3.470247,-1.19945 0.841226,-0.12043 1.624753,-0.023 2.256025,0.28033 0.583576,0.28057 1.322898,1.05704 1.866312,1.96005 0.524215,0.87111 0.856554,1.1955 1.312446,1.28103 0.396728,0.0746 1.186131,-0.0801 2.152465,-0.42105 0.751426,-0.26523 0.973787,-0.25535 0.861126,0.0382 -0.110297,0.28741 -1.930284,0.86106 -2.740195,0.86366 -0.809893,0.002 -1.265924,-0.3454 -1.905761,-1.4543 -0.461933,-0.80064 -1.154832,-1.55267 -1.675091,-1.81808 -1.143243,-0.58322 -2.721801,-0.35877 -5.01919,0.7137 -4.316127,2.01489 -7.46252,2.85157 -10.722145,2.85124 -2.366002,-2.7e-4 -3.685747,-0.30444 -8.275165,-1.9073 -2.222909,-0.77634 -2.990663,-0.9629 -3.96619,-0.96369 -1.497631,-0.002 -2.706172,0.30706 -4.976337,1.26938 -1.166273,0.49434 -3.258308,1.53942 -3.337177,1.66702 -0.06459,0.10454 -0.03816,0.0998 1.246134,-0.22371 0.440456,-0.11088 1.101133,-0.21546 1.468175,-0.23226 1.0928,-0.0498 3.120231,-0.0317 3.692685,0.0336 0.293637,0.0333 0.793737,0.0833 1.111328,0.1109 0.762251,0.0661 3.624501,0.55312 4.939347,0.8405 0.441606,0.0966 0.701513,0.15877 3.870633,0.92724 0.905372,0.21951 2.126637,0.4637 2.713901,0.54259 0.587282,0.0789 1.207916,0.16972 1.379206,0.20195 0.171286,0.0322 0.419886,0.0483 0.552438,0.0356 0.132555,-0.0119 0.378009,0.0139 0.545434,0.0612 0.274678,0.0757 1.514082,0.0303 3.08986,-0.11387 0.58013,-0.053 1.999848,-0.40998 2.650289,-0.66636 1.253025,-0.49389 2.319997,-1.14068 3.830867,-2.32219 1.253172,-0.98 1.469949,-1.11512 2.195805,-1.36872 0.571888,-0.19981 0.695669,-0.21233 1.421944,-0.14409 1.641476,0.15442 2.792035,0.86469 2.946947,1.81929 l 0.008,0.11051 -0.02365,0.0854 c 0,0 -0.05564,0.0342 -0.129374,0.062 -0.06797,0.0257 -0.151632,0.0445 -0.21628,0.0617 -0.155011,0.0413 -0.412051,0.0119 -0.412051,0.24888 0,0.27235 0.394423,0.69744 1.023271,1.10284 0.43085,0.27771 0.650012,0.33253 1.394264,0.34867 0.603907,0.014 0.977503,-0.12818 2.09223,-0.79147 0.484449,-0.28826 1.071683,-0.48954 1.19885,-0.41094 0.04133,0.0254 0.07511,1.71639 0.07511,3.75747 0,3.42773 -0.01193,3.73475 -0.163357,4.02111 -0.08983,0.1705 -0.300006,0.38005 -0.46714,0.46562 -0.28673,0.14686 -1.471212,0.1556 -20.991803,0.1556 -19.517714,0 -20.705552,-0.007 -20.999363,-0.1556 z m -0.563544,-9.60232 c -0.0327,-0.0326 -0.05932,-1.57621 -0.05932,-3.43015 0,-3.65777 0.002,-3.67464 0.499612,-4.06601 l 0.236235,-0.18581 h 20.813819 c 22.744645,0 21.111545,-0.0385 21.481365,0.50707 0.153819,0.2268 0.171505,0.46709 0.19754,2.66841 l 0.02862,2.41917 -0.260935,0.13493 c -0.143484,0.0743 -0.52036,0.2001 -0.837437,0.27974 -1.034518,0.25985 -1.542735,-0.0405 -2.784911,-1.64593 -0.577654,-0.74657 -1.175022,-1.18974 -1.931654,-1.43303 -0.535007,-0.1721 -0.738448,-0.19018 -1.652723,-0.14786 -1.294844,0.06 -1.684561,0.1892 -4.176852,1.38356 -2.150033,1.03043 -3.078578,1.40558 -4.531804,1.83088 -2.279854,0.6672 -3.912487,0.90202 -5.755761,0.82778 -2.056374,-0.0829 -3.293083,-0.41313 -6.541736,-1.74709 -2.35565,-0.9673 -2.954592,-1.10947 -4.684019,-1.11177 -1.378748,-0.002 -1.451762,0.006 -2.313487,0.29471 -1.221998,0.40734 -3.357103,1.365 -5.608456,2.51552 -1.891299,0.9665 -2.007617,1.01625 -2.11801,0.90586 z m 2.4469,-1.59421 c 2.196489,-1.09921 3.924859,-1.87493 4.919628,-2.20802 2.410026,-0.80697 4.168246,-0.62892 7.567341,0.76636 3.009865,1.23545 4.384328,1.61845 6.200497,1.72769 1.539782,0.0926 3.531591,-0.19396 5.682112,-0.81778 1.512044,-0.43857 2.491308,-0.83223 4.62325,-1.8586 2.242805,-1.07975 3.094863,-1.37082 4.219657,-1.44141 1.84018,-0.11546 3.021423,0.48815 4.340606,2.21803 0.703412,0.92248 1.074465,1.16664 1.693634,1.11455 0.257537,-0.0217 0.588346,-0.0972 0.735169,-0.16793 l 0.266937,-0.12857 0.02385,-2.08963 c 0.02722,-2.3714 -0.002,-2.52787 -0.501719,-2.67199 -0.222162,-0.0642 -6.751563,-0.0851 -20.90761,-0.0672 l -20.58457,0.026 -0.170095,0.21006 c -0.159959,0.19754 -0.170094,0.38889 -0.170094,3.21072 0,2.65122 0.02233,3.11928 0.149109,3.11928 0.01669,0 0.87725,-0.42376 1.912209,-0.9417 z"
         id="path923"
         inkscape:connector-curvature="0"
         sodipodi:nodetypes="cssscccscssccsscssssccsssccccscscscccsccscccccsscscccsssccccsccscccccscsccccccscssccccccsssscccccscsccssccc" />
      <g
         id="g4979">
        <path
           inkscape:connector-curvature="0"
           id="path917"
           d="m 32.150421,271.96158 c -0.146823,-0.0648 -0.34703,-0.20753 -0.444905,-0.31717 -0.170374,-0.19079 -0.179078,-0.34488 -0.204172,-3.61655 l -0.02625,-3.41722 0.248664,-0.0962 c 0.453618,-0.17548 1.443225,-0.34991 2.359046,-0.41578 l 0.904073,-0.065 0.07327,-0.2836 c 0.136092,-0.5267 0.416531,-0.65071 1.471793,-0.65071 0.854469,0 0.926077,0.0119 0.862674,0.1558 -0.03796,0.0856 -0.08605,0.32189 -0.106759,0.52501 -0.04234,0.41571 -0.05406,0.40937 0.972493,0.52624 l 0.504209,0.0574 0.233989,-0.35358 c 0.411662,-0.62207 0.797613,-0.71531 2.061145,-0.49804 l 0.278221,0.0479 -0.186312,0.441 c -0.254255,0.60179 -0.171207,0.70712 0.705173,0.8941 0.682718,0.14568 0.926759,0.11428 0.926759,-0.11963 0,-0.16693 0.389395,-0.60065 0.628263,-0.69958 0.186411,-0.0771 0.374545,-0.0771 0.765959,4e-4 0.895244,0.17747 0.8519,0.14389 0.787454,0.61244 -0.08568,0.62292 0.03893,0.85741 0.52026,0.97859 0.504521,0.12699 0.679323,0.12799 0.679323,0.005 0,-0.23224 0.310155,-0.72082 0.529627,-0.83431 0.209432,-0.10832 0.327963,-0.10096 0.966779,0.0594 l 0.728092,0.18283 4e-4,0.32268 c 2.45e-4,0.17746 0.04186,0.47173 0.09249,0.65393 0.08293,0.29848 0.137921,0.34506 0.555629,0.47048 0.254989,0.0764 0.638315,0.16375 0.851823,0.19376 l 0.388185,0.0546 -0.06009,-0.27391 c -0.0602,-0.27409 0.108011,-0.74227 0.311981,-0.86832 0.05231,-0.0322 0.488939,-0.006 0.970199,0.0558 l 0.875027,0.11467 0.05884,0.44331 c 0.06118,0.46068 0.183252,0.76627 0.351099,0.87834 0.139608,0.0932 1.922004,0.084 1.922004,-0.01 0,-0.0429 -0.06274,-0.13017 -0.139351,-0.19376 -0.222486,-0.18461 -0.40852,-0.61174 -0.348637,-0.80039 0.04138,-0.13057 0.136289,-0.17369 0.38275,-0.17409 0.18023,-2.6e-4 0.650451,-0.0257 1.044948,-0.0564 l 0.717261,-0.0558 0.110655,0.4944 c 0.147479,0.65894 0.25005,0.73449 0.836394,0.61603 0.25619,-0.0518 0.580054,-0.13792 0.719691,-0.19118 l 0.253877,-0.0972 -0.320618,-0.35487 c -0.503172,-0.55698 -0.459637,-0.62575 0.609472,-0.96338 1.64725,-0.52016 2.617742,-1.06224 4.410355,-2.46338 1.227626,-0.95954 1.68339,-1.24168 2.380833,-1.47378 0.533598,-0.17747 0.643338,-0.18482 1.438053,-0.0944 0.98662,0.11228 1.699911,0.36788 2.126726,0.76236 0.309565,0.2861 0.674079,0.89936 0.602953,1.01441 -0.02246,0.0365 -0.174288,0.0767 -0.33697,0.089 -0.842464,0.0642 -0.603668,0.70685 0.56742,1.52708 0.346548,0.24271 0.549952,0.30941 1.182475,0.38778 l 0.763906,0.0946 0.641626,-0.33103 c 0.352888,-0.18204 0.897891,-0.47036 1.211092,-0.64066 0.313202,-0.17032 0.664819,-0.3096 0.781375,-0.3096 h 0.211928 l -0.02504,3.73075 c -0.02424,3.62694 -0.0302,3.73773 -0.211353,3.98187 -0.102545,0.13813 -0.32268,0.2989 -0.489396,0.35731 -0.469008,0.16435 -41.306248,0.156 -41.678948,-0.007 z m -0.578376,-8.63846 c 0,-0.22756 3.606321,-1.94343 5.38797,-2.56359 1.636896,-0.56975 3.297288,-0.73393 4.632938,-0.45802 0.368749,0.0761 1.83858,0.53929 3.266269,1.02918 4.545452,1.55967 6.219611,1.87452 8.897241,1.67324 2.745943,-0.20644 5.432492,-0.97644 8.73626,-2.50395 2.425287,-1.12135 3.243662,-1.35661 4.524301,-1.3006 0.668594,0.0292 0.917703,0.0817 1.317453,0.27723 0.638605,0.31246 1.357399,1.07134 1.890697,1.99622 0.231999,0.40231 0.540273,0.83116 0.685069,0.95299 0.517955,0.43583 1.336612,0.41301 2.702853,-0.0753 0.601006,-0.21482 0.847473,-0.26917 0.847473,-0.1868 0,0.13195 -0.877798,0.50101 -1.588762,0.66805 -0.262088,0.0616 -0.729744,0.11189 -1.039269,0.11189 -0.811204,0 -1.076173,-0.19376 -1.737852,-1.27039 -0.963134,-1.56729 -2.008365,-2.31106 -3.247791,-2.31106 -0.679528,0 -2.059847,0.38025 -3.185549,0.87756 -0.544867,0.2407 -1.546055,0.68231 -2.224872,0.9813 -1.989779,0.87642 -4.237025,1.53917 -6.418106,1.8928 -0.415536,0.0674 -1.452611,0.11487 -2.491453,0.11427 -1.490245,-0.002 -1.943997,-0.0339 -2.790659,-0.203 -1.08237,-0.21612 -2.533775,-0.63233 -3.971837,-1.13898 -4.647652,-1.63743 -5.163111,-1.72994 -7.296392,-1.30946 -1.204843,0.23748 -3.225329,1.03982 -5.539031,2.19956 -0.961935,0.48219 -1.356951,0.64137 -1.356951,0.54689 z m -0.05084,-1.05349 c -0.02545,-0.0663 -0.03444,-1.61869 -0.01999,-3.44946 0.02381,-3.00695 0.04158,-3.35094 0.183311,-3.5596 0.08635,-0.12699 0.258383,-0.27722 0.38235,-0.33367 0.338581,-0.15422 41.55079,-0.14468 41.851253,0.01 0.500745,0.25735 0.520758,0.35928 0.57686,2.93881 l 0.05186,2.38396 -0.421293,0.18443 c -0.231721,0.10135 -0.68155,0.20369 -0.99966,0.22726 -0.528886,0.0392 -0.611221,0.0205 -0.96234,-0.21764 -0.211173,-0.14329 -0.691668,-0.65489 -1.067768,-1.13695 -1.283967,-1.64575 -2.594227,-2.21059 -4.442623,-1.91527 -0.926037,0.14804 -1.518561,0.36083 -3.048175,1.09518 -2.845019,1.36585 -3.582506,1.66817 -5.246107,2.15061 -3.765417,1.09188 -6.925343,1.06774 -9.947631,-0.0761 -0.428023,-0.16197 -1.438917,-0.56352 -2.246413,-0.89231 -2.118899,-0.86277 -3.225571,-1.13639 -4.626986,-1.14396 -1.869012,-0.01 -3.127764,0.43403 -7.676779,2.70876 -1.671253,0.83571 -2.306064,1.11407 -2.339843,1.02604 z m 2.522285,-1.38675 c 3.028387,-1.51724 4.904766,-2.28064 6.159645,-2.50598 1.825896,-0.32789 3.54698,0.0199 6.784192,1.37078 2.863621,1.19499 3.909996,1.43497 6.251428,1.43357 1.90057,-0.002 2.90364,-0.14666 4.830643,-0.7014 1.645375,-0.47359 2.651616,-0.87222 4.734745,-1.87572 2.79382,-1.34587 3.041657,-1.42197 4.631584,-1.42197 h 1.294838 l 0.666031,0.32918 c 0.708122,0.34997 1.413402,1.00903 2.228819,2.08275 0.285141,0.37547 0.544725,0.60727 0.840119,0.75028 0.423876,0.20519 0.432421,0.20566 1.003697,0.0558 0.316898,-0.083 0.629543,-0.19535 0.694786,-0.24953 0.09301,-0.0771 0.118643,-0.5775 0.118643,-2.31887 v -2.22047 l -0.2601,-0.26008 -0.2601,-0.2601 H 52.974609 32.186814 l -0.218408,0.2184 -0.218406,0.21841 v 3.16284 c 0,3.10341 0.003,3.16285 0.177925,3.16285 0.09785,0 1.049866,-0.43685 2.115559,-0.97076 z"
           style="fill:#13aee5;stroke-width:0.08898038"
           sodipodi:nodetypes="ccsccscsscccccccccsccccscsccccccccccccscccscccccccsccscccccccsccccccscccsscccssscscscccccsssscscscccscccssscccsccscccsssccccccscccccccsss" />
      </g>
    </g>
    <path
       style="fill:#000000;fill-opacity:1;stroke:#aab4f3;stroke-width:0.00208548;stroke-linejoin:round;stroke-miterlimit:4;stroke-dasharray:none;stroke-opacity:1"
       d="m 70.723792,264.36893 c -0.0099,-0.007 -0.0099,-0.007 -0.07929,-0.075 -0.03995,-0.0382 -0.0477,-0.0462 -0.05406,-0.0552 -0.02008,-0.0283 -0.06558,-0.0908 -0.09162,-0.12541 -0.193763,-0.25911 -0.37274,-0.45899 -0.539079,-0.60195 -0.162763,-0.13992 -0.315507,-0.22476 -0.452554,-0.25145 -0.03835,-0.006 -0.05465,-0.007 -0.09917,-0.007 h -0.03816 l 0.01391,-0.005 c 0.06021,-0.0159 0.104932,-0.0322 0.147659,-0.0515 0.01788,-0.007 0.05624,-0.0274 0.07015,-0.0356 l 0.01193,-0.006 0.01193,-0.0425 0.01193,-0.0427 -0.0039,-0.0546 c -0.002,-0.0303 -0.006,-0.0549 -0.0039,-0.055 3.98e-4,-7.7e-4 0.03299,0.0199 0.05365,0.0328 0.104135,0.0686 0.202308,0.15541 0.344084,0.30474 0.0099,0.0119 0.03895,0.0413 0.06299,0.0672 0.131162,0.1405 0.184423,0.19495 0.245612,0.25135 0.119835,0.1101 0.223256,0.17965 0.335739,0.22522 0.03001,0.0119 0.07293,0.0259 0.104333,0.0332 0.03538,0.007 0.04929,0.01 0.182436,0.0215 0.01391,0.002 0.03537,0.002 0.0475,0.005 l 0.02186,0.002 -0.02186,-8e-4 c -0.03478,-0.002 -0.13931,-7.9e-4 -0.168326,8e-4 -0.104533,0.005 -0.176871,0.0159 -0.221467,0.0336 -0.01788,0.006 -0.03001,0.0139 -0.03915,0.0243 -0.006,0.006 -0.008,0.01 -0.0099,0.0179 -0.002,0.006 -0.002,0.007 -0.002,0.0218 0.006,0.0718 0.03697,0.15619 0.09122,0.25066 0.0159,0.0278 0.0302,0.0505 0.05425,0.0866 0.02086,0.0317 0.02662,0.0409 0.02504,0.0409 -3.99e-4,0 -0.0039,-0.005 -0.0099,-0.007 z"
       id="path960"
       inkscape:connector-curvature="0" />
    <flowRoot
       xml:space="preserve"
       id="flowRoot4684"
       style="font-style:normal;font-variant:normal;font-weight:normal;font-stretch:normal;font-size:15.99599934px;line-height:125%;font-family:Cousine;-inkscape-font-specification:'Cousine, Normal';font-variant-ligatures:normal;font-variant-caps:normal;font-variant-numeric:normal;font-feature-settings:normal;text-align:center;letter-spacing:0px;word-spacing:0px;writing-mode:lr-tb;text-anchor:middle;fill:#000000;fill-opacity:1;stroke:none;stroke-width:1px;stroke-linecap:butt;stroke-linejoin:miter;stroke-opacity:1"
       transform="matrix(0.26458333,0,0,0.26458333,0,266)"><flowRegion
         id="flowRegion4686"><rect
           id="rect4688"
           width="237.58788"
           height="176.77669"
           x="173.24117"
           y="-49.004742" /></flowRegion><flowPara
         id="flowPara4690" /></flowRoot>    <g
       aria-label="FluidSim"
       transform="matrix(0.26458333,0,0,0.26458333,-3.9875535,260.52908)"
       style="font-style:normal;font-variant:normal;font-weight:normal;font-stretch:normal;font-size:15.99599934px;line-height:125%;font-family:Cousine;-inkscape-font-specification:'Cousine, Normal';font-variant-ligatures:normal;font-variant-caps:normal;font-variant-numeric:normal;font-feature-settings:normal;text-align:center;letter-spacing:0px;word-spacing:0px;writing-mode:lr-tb;text-anchor:middle;fill:#02629f;fill-opacity:1;stroke:none;stroke-width:1px;stroke-linecap:butt;stroke-linejoin:miter;stroke-opacity:1"
       id="flowRoot4692">
      <path
         d="m 96.735102,120.28085 h 5.311998 v -20.608 h 20.416 v -4.608 h -20.416 v -14.592 h 22.272 v -4.608 H 96.735102 Z"
         style="font-style:normal;font-variant:normal;font-weight:normal;font-stretch:normal;font-size:64px;font-family:Cantarell;-inkscape-font-specification:Cantarell;fill:#02629f;fill-opacity:1"
         id="path7605" />
      <path
         d="m 139.42315,120.66485 c 1.664,0 3.648,-0.384 4.864,-1.024 l -1.152,-3.584 c -0.768,0.32 -1.472,0.512 -2.24,0.512 -2.176,0 -3.328,-1.472 -3.328,-3.84 v -39.744 h -5.12 v 40.384 c 0,4.416 2.752,7.296 6.976,7.296 z"
         style="font-style:normal;font-variant:normal;font-weight:normal;font-stretch:normal;font-size:64px;font-family:Cantarell;-inkscape-font-specification:Cantarell;fill:#02629f;fill-opacity:1"
         id="path7607" />
      <path
         d="m 154.5269,89.43285 h -5.12 v 20.224 c 0,6.848 4.544,11.264 11.136,11.264 3.392,0 6.848,-1.216 9.728,-3.328 l 1.152,2.688 h 3.584 v -30.848 h -5.12 v 24.192 c -2.24,1.792 -5.056,2.816 -7.808,2.816 -4.8,0 -7.552,-2.816 -7.552,-7.808 z"
         style="font-style:normal;font-variant:normal;font-weight:normal;font-stretch:normal;font-size:64px;font-family:Cantarell;-inkscape-font-specification:Cantarell;fill:#02629f;fill-opacity:1"
         id="path7609" />
      <path
         d="m 188.51134,82.20085 c 2.304,0 3.648,-1.344 3.648,-3.648 0,-2.304 -1.344,-3.648 -3.648,-3.648 -2.304,0 -3.648,1.344 -3.648,3.648 0,2.304 1.344,3.648 3.648,3.648 z m -2.624,38.08 h 5.12 v -30.848 h -5.12 z"
         style="font-style:normal;font-variant:normal;font-weight:normal;font-stretch:normal;font-size:64px;font-family:Cantarell;-inkscape-font-specification:Cantarell;fill:#02629f;fill-opacity:1"
         id="path7611" />
      <path
         d="m 213.6632,120.92085 c 3.712,0 6.848,-1.344 9.216,-3.648 l 1.28,3.008 h 3.584 v -47.296 h -5.12 v 18.56 c -2.176,-1.792 -4.992,-2.752 -8.256,-2.752 -8.704,0 -14.464,6.528 -14.464,16.32 0,9.472 5.504,15.808 13.76,15.808 z m -8.64,-16.384 c 0,-6.784 3.584,-11.264 9.536,-11.264 3.456,0 6.208,1.408 8.064,3.84 v 15.808 c -1.728,2.24 -4.352,3.52 -7.488,3.52 -6.144,0 -10.112,-4.8 -10.112,-11.904 z"
         style="font-style:normal;font-variant:normal;font-weight:normal;font-stretch:normal;font-size:64px;font-family:Cantarell;-inkscape-font-specification:Cantarell;fill:#02629f;fill-opacity:1"
         id="path7613" />
      <path
         d="m 250.84766,120.92085 c 9.408,0 15.424,-4.928 15.424,-12.288 0,-15.424 -26.176,-8.704 -26.176,-22.08 0,-5.632 4.48,-8.896 12.288,-8.896 3.84,0 7.808,0.768 11.136,2.368 l 0.832,-2.176 c -3.52,-1.728 -7.68,-2.496 -11.584,-2.496 -9.536,0 -15.424,4.416 -15.424,11.648 0,15.232 26.112,8.896 26.112,22.144 0,5.632 -4.608,9.408 -12.288,9.408 -4.224,0 -9.088,-1.152 -13.568,-3.136 l -0.832,2.176 c 4.544,2.176 9.536,3.328 14.08,3.328 z"
         style="font-style:normal;font-variant:normal;font-weight:300;font-stretch:normal;font-family:Cantarell;-inkscape-font-specification:'Cantarell Light';fill:#000000"
         id="path7615" />
      <path
         d="m 276.96045,80.85685 c 1.28,0 2.112,-0.832 2.112,-2.112 0,-1.28 -0.832,-2.112 -2.112,-2.112 -1.28,0 -2.112,0.832 -2.112,2.112 0,1.28 0.832,2.112 2.112,2.112 z m -1.408,39.424 h 2.624 v -30.784 h -2.624 z"
         style="font-style:normal;font-variant:normal;font-weight:300;font-stretch:normal;font-family:Cantarell;-inkscape-font-specification:'Cantarell Light';fill:#000000"
         id="path7617" />
      <path
         d="m 289.37607,120.28085 h 2.624 v -25.216 c 2.688,-2.368 6.144,-3.776 9.664,-3.776 5.376,0 8.576,3.392 8.576,9.216 v 19.776 h 2.624 v -20.16 c 0,-1.6 -0.192,-3.072 -0.64,-4.352 2.752,-2.816 6.464,-4.48 10.24,-4.48 5.44,0 8.64,3.392 8.64,9.216 v 19.776 h 2.624 v -20.16 c 0,-6.976 -4.096,-11.072 -10.624,-11.072 -4.288,0 -8.448,1.856 -11.52,5.12 -1.728,-3.328 -4.992,-5.12 -9.28,-5.12 -3.776,0 -7.552,1.408 -10.432,3.904 l -0.576,-3.456 h -1.92 z"
         style="font-style:normal;font-variant:normal;font-weight:300;font-stretch:normal;font-family:Cantarell;-inkscape-font-specification:'Cantarell Light';fill:#000000"
         id="path7619" />
    </g>
    <path
       style="fill:none;fill-rule:evenodd;stroke:#000000;stroke-width:0.26399097px;stroke-linecap:butt;stroke-linejoin:miter;stroke-opacity:1"
       d="M 6.3500001,275.67189 H 99.124893"
       id="path4872"
       inkscape:connector-curvature="0" />
  </g>
  <g
     inkscape:groupmode="layer"
     id="layer3"
     inkscape:label="Middle">
    <path
       style="fill:#02629f;stroke-width:0.08898038"
       d="m 32.150414,22.961579 c -0.146818,-0.06481 -0.347024,-0.207538 -0.444902,-0.317176 -0.170178,-0.190626 -0.179111,-0.344992 -0.204266,-3.529727 l -0.0263,-3.330381 0.308715,-0.128989 c 1.129543,-0.471954 3.930636,-0.552639 6.640388,-0.191277 2.626874,0.350309 5.857329,1.012944 9.66173,1.981827 1.707514,0.434858 4.062144,0.821781 5.46442,0.897931 1.045686,0.05679 3.035454,-0.09133 3.915136,-0.291439 1.818689,-0.413714 3.27936,-1.235044 5.338823,-3.001998 1.82393,-1.564874 2.43016,-1.795383 3.610233,-1.372735 0.523943,0.187653 1.255734,0.38636 2.050913,0.556894 0.121831,0.02613 0.207,0.131234 0.239987,0.296171 0.06905,0.345252 0.383303,0.700694 0.987252,1.116648 0.435131,0.299687 0.605935,0.359392 1.259984,0.440425 l 0.756545,0.09446 0.641705,-0.331766 c 0.352746,-0.182373 0.897891,-0.470369 1.211095,-0.640656 0.313204,-0.170284 0.664825,-0.309607 0.781382,-0.309607 h 0.211919 l -0.02505,3.730755 c -0.02437,3.62694 -0.03024,3.737744 -0.211344,3.981873 -0.102463,0.138112 -0.322691,0.298905 -0.489393,0.357318 -0.46902,0.164342 -41.30627,0.155965 -41.678971,-0.0086 z m 36.00192,-9.607277 c -0.120368,-0.145039 -0.04926,-0.377338 0.137437,-0.448981 0.166909,-0.06405 0.476067,0.0951 0.476067,0.245077 0,0.29007 -0.424812,0.431262 -0.613504,0.203904 z"
       id="path915"
       inkscape:connector-curvature="0"
       sodipodi:nodetypes="ccscssscssscccccscsccccccccsc" />
    <path
       inkscape:connector-curvature="0"
       id="path962"
       d="m 68.343913,13.459719 c -0.102804,-0.01873 -0.183578,-0.07808 -0.224697,-0.165087 -0.0213,-0.04506 -0.02791,-0.115961 -0.01591,-0.170573 0.01869,-0.08509 0.08354,-0.166252 0.164413,-0.205783 0.04394,-0.02148 0.04689,-0.02206 0.110033,-0.02188 0.0779,2e-4 0.117075,0.01002 0.200553,0.05015 0.09563,0.04597 0.16394,0.111558 0.180588,0.173384 0.0131,0.04863 -0.0066,0.131078 -0.04524,0.18928 -0.04163,0.06272 -0.126225,0.120108 -0.208269,0.141293 -0.04541,0.01173 -0.123307,0.01617 -0.161467,0.0092 z"
       style="fill:#000000;fill-opacity:1;stroke:#aab4f3;stroke-width:0.01179724;stroke-linejoin:round;stroke-miterlimit:4;stroke-dasharray:none;stroke-opacity:1" />
  </g>
  <g
     inkscape:groupmode="layer"
     id="layer4"
     inkscape:label="Top">
    <g
       aria-label="FluidDyn Project"
       transform="translate(0,-249)"
       style="font-style:normal;font-variant:normal;font-weight:normal;font-stretch:normal;font-size:1.06749773px;line-height:125%;font-family:Cousine;-inkscape-font-specification:'Cousine, Normal';font-variant-ligatures:normal;font-variant-caps:normal;font-variant-numeric:normal;font-feature-settings:normal;text-align:center;letter-spacing:0px;word-spacing:0px;writing-mode:lr-tb;text-anchor:middle;fill:#ffffff;fill-opacity:1;stroke:none;stroke-width:0.06673528px;stroke-linecap:butt;stroke-linejoin:miter;stroke-opacity:1"
       id="text936">
      <path
         d="m 35.494327,268.63865 v 0.92291 h 1.26293 v 0.29518 h -1.26293 v 1.01072 h -0.356834 v -2.52025 h 1.664602 v 0.29144 z"
         style="font-size:3.82615614px;fill:#ffffff;fill-opacity:1;stroke-width:0.06673528px"
         id="path7574" />
      <path
         d="m 38.446146,270.60217 h 0.709932 v 0.26529 h -1.834612 v -0.26529 h 0.788397 v -2.24189 h -0.539921 v -0.26529 h 0.876204 z"
         style="font-size:3.82615614px;fill:#ffffff;fill-opacity:1;stroke-width:0.06673528px"
         id="path7576" />
      <path
         d="m 40.049096,268.84603 v 1.28161 q 0,0.29144 0.09154,0.40541 0.09154,0.11209 0.326942,0.11209 0.241003,0 0.381121,-0.1644 0.140118,-0.16441 0.140118,-0.46333 v -1.17138 h 0.338152 v 1.58987 q 0,0.3531 0.01121,0.43156 h -0.317601 q -0.0019,-0.009 -0.0037,-0.0504 -0.0019,-0.0411 -0.0056,-0.0934 -0.0019,-0.0542 -0.0056,-0.20177 h -0.0056 q -0.115831,0.20924 -0.269027,0.29705 -0.151327,0.0859 -0.377384,0.0859 -0.332547,0 -0.487611,-0.16441 -0.153196,-0.16627 -0.153196,-0.54739 v -1.347 z"
         style="font-size:3.82615614px;fill:#ffffff;fill-opacity:1;stroke-width:0.06673528px"
         id="path7578" />
      <path
         d="m 43.055095,270.60217 h 0.709931 v 0.26529 h -1.834612 v -0.26529 h 0.788398 v -1.49085 h -0.595969 v -0.26529 h 0.932252 z m -0.373648,-2.14847 v -0.35871 h 0.373648 v 0.35871 z"
         style="font-size:3.82615614px;fill:#ffffff;fill-opacity:1;stroke-width:0.06673528px"
         id="path7580" />
      <path
         d="m 45.569746,270.54239 q -0.09154,0.19616 -0.242871,0.28584 -0.151327,0.0878 -0.377385,0.0878 -0.377384,0 -0.554867,-0.25969 -0.177483,-0.25968 -0.177483,-0.78279 0,-1.05743 0.73235,-1.05743 0.226058,0 0.377385,0.0803 0.153196,0.0803 0.24474,0.26342 h 0.0037 l -0.0037,-0.2821 v -0.7828 h 0.336283 v 2.35585 q 0,0.31574 0.01121,0.41662 H 45.59777 q -0.0075,-0.028 -0.01308,-0.13638 -0.0056,-0.10836 -0.0056,-0.18869 z m -1.005113,-0.68004 q 0,0.41475 0.110226,0.60531 0.112095,0.18869 0.362439,0.18869 0.272763,0 0.40354,-0.19616 0.130777,-0.19804 0.130777,-0.62773 0,-0.40167 -0.127041,-0.58476 -0.125172,-0.18309 -0.40354,-0.18309 -0.252212,0 -0.364307,0.19243 -0.112094,0.19243 -0.112094,0.60531 z"
         style="font-size:3.82615614px;fill:#ffffff;fill-opacity:1;stroke-width:0.06673528px"
         id="path7582" />
      <path
         d="m 48.357161,269.58211 q 0,0.61839 -0.287709,0.95281 -0.285841,0.33254 -0.820158,0.33254 h -0.691249 v -2.52025 h 0.581023 q 0.614651,0 0.915438,0.30826 0.302655,0.30639 0.302655,0.92664 z m -0.358702,0 q 0,-0.49321 -0.205507,-0.7174 -0.205506,-0.22606 -0.652016,-0.22606 h -0.226057 v 1.93737 h 0.302655 q 0.396067,0 0.588496,-0.24848 0.192429,-0.24848 0.192429,-0.74543 z"
         style="font-size:3.82615614px;fill:#ffffff;fill-opacity:1;stroke-width:0.06673528px"
         id="path7584" />
      <path
         d="m 49.096984,271.66146 q -0.13825,0 -0.231662,-0.0205 v -0.25221 q 0.07099,0.0112 0.156932,0.0112 0.147591,0 0.2765,-0.11023 0.130777,-0.11022 0.220452,-0.35122 l 0.03363,-0.0916 -0.878073,-2.00088 h 0.358703 l 0.493215,1.19941 q 0.17001,0.41848 0.183088,0.47453 l 0.0766,-0.20551 0.579155,-1.46843 h 0.354966 l -0.851918,2.02143 q -0.166273,0.43904 -0.345624,0.61652 -0.177483,0.17748 -0.425959,0.17748 z"
         style="font-size:3.82615614px;fill:#ffffff;fill-opacity:1;stroke-width:0.06673528px"
         id="path7586" />
      <path
         d="m 52.469158,270.86746 v -1.29842 q 0,-0.25409 -0.09902,-0.37739 -0.09715,-0.1233 -0.311996,-0.1233 -0.231662,0 -0.381122,0.17001 -0.14759,0.16814 -0.14759,0.45772 v 1.17138 H 51.19315 v -1.58987 q 0,-0.3531 -0.01121,-0.43156 h 0.317601 q 0.0019,0.009 0.0037,0.0504 0.0019,0.0411 0.0037,0.0953 0.0037,0.0523 0.0075,0.1999 h 0.0056 q 0.196166,-0.38299 0.646411,-0.38299 0.323206,0 0.482006,0.17562 0.158801,0.17374 0.158801,0.53618 v 1.347 z"
         style="font-size:3.82615614px;fill:#ffffff;fill-opacity:1;stroke-width:0.06673528px"
         id="path7588" />
      <path
         d="m 57.530219,269.10198 q 0,0.23353 -0.112094,0.41661 -0.110226,0.18309 -0.317601,0.28584 -0.205506,0.10276 -0.476401,0.10276 h -0.524976 v 0.96027 h -0.356834 v -2.52025 h 0.859391 q 0.444641,0 0.685644,0.1999 0.242871,0.19803 0.242871,0.55487 z m -0.358702,0.006 q 0,-0.47453 -0.612783,-0.47453 h -0.459587 v 0.99203 h 0.474533 q 0.278368,0 0.437168,-0.13638 0.160669,-0.13638 0.160669,-0.38112 z"
         style="font-size:3.82615614px;fill:#ffffff;fill-opacity:1;stroke-width:0.06673528px"
         id="path7590" />
      <path
         d="m 59.688038,269.15242 q -0.209243,-0.0355 -0.396067,-0.0355 -0.300787,0 -0.485743,0.22606 -0.184956,0.22606 -0.184956,0.57542 v 0.94906 h -0.336283 v -1.30963 q 0,-0.14199 -0.02616,-0.33442 -0.02429,-0.19243 -0.07099,-0.37738 h 0.319469 q 0.07473,0.25781 0.08967,0.46706 h 0.0093 q 0.09341,-0.20925 0.183087,-0.3064 0.08968,-0.099 0.212979,-0.14759 0.123304,-0.0504 0.300787,-0.0504 0.194297,0 0.384858,0.0318 z"
         style="font-size:3.82615614px;fill:#ffffff;fill-opacity:1;stroke-width:0.06673528px"
         id="path7592" />
      <path
         d="m 62.081254,269.85488 q 0,0.51003 -0.235398,0.78092 -0.23353,0.26903 -0.676303,0.26903 -0.433432,0 -0.665093,-0.27277 -0.229794,-0.27276 -0.229794,-0.77718 0,-0.52124 0.235398,-0.7828 0.237267,-0.26342 0.670699,-0.26342 0.45585,0 0.678171,0.25969 0.22232,0.25968 0.22232,0.78653 z m -0.353097,0 q 0,-0.40168 -0.128909,-0.59971 -0.12704,-0.19803 -0.412881,-0.19803 -0.289577,0 -0.42409,0.20177 -0.134514,0.20177 -0.134514,0.59597 0,0.39233 0.134514,0.59783 0.134513,0.20364 0.40354,0.20364 0.29705,0 0.429695,-0.1999 0.132645,-0.1999 0.132645,-0.60157 z"
         style="font-size:3.82615614px;fill:#ffffff;fill-opacity:1;stroke-width:0.06673528px"
         id="path7594" />
      <path
         d="m 63.88971,270.91977 q 0,0.34936 -0.209243,0.54553 -0.209243,0.19616 -0.595969,0.19616 -0.147591,0 -0.300786,-0.0243 -0.153196,-0.0243 -0.237267,-0.0561 v -0.26155 q 0.280236,0.0635 0.51003,0.0635 0.239135,0 0.368043,-0.12331 0.128909,-0.1233 0.128909,-0.34562 v -1.80285 h -0.760374 v -0.26529 h 1.096657 z m -0.373648,-2.46607 v -0.35871 h 0.373648 v 0.35871 z"
         style="font-size:3.82615614px;fill:#ffffff;fill-opacity:1;stroke-width:0.06673528px"
         id="path7596" />
      <path
         d="m 65.225501,269.92774 q 0,0.34002 0.149459,0.53245 0.151327,0.19242 0.412881,0.19242 0.192429,0 0.336283,-0.0822 0.145723,-0.0841 0.194297,-0.22792 l 0.295182,0.0841 q -0.0822,0.23166 -0.302655,0.35496 -0.218584,0.12331 -0.523107,0.12331 -0.440905,0 -0.678171,-0.27463 -0.237267,-0.27464 -0.237267,-0.78653 0,-0.49882 0.231662,-0.76598 0.23353,-0.26903 0.672567,-0.26903 0.439036,0 0.665093,0.26716 0.226057,0.26716 0.226057,0.80708 v 0.0448 z m 0.554867,-0.8706 q -0.250344,0 -0.396067,0.1644 -0.145723,0.16254 -0.155064,0.44838 h 1.091053 q -0.05231,-0.61278 -0.539922,-0.61278 z"
         style="font-size:3.82615614px;fill:#ffffff;fill-opacity:1;stroke-width:0.06673528px"
         id="path7598" />
      <path
         d="m 67.162869,269.85488 q 0,-0.50443 0.241003,-0.77532 0.241003,-0.2709 0.696853,-0.2709 0.34002,0 0.560472,0.16441 0.220453,0.16253 0.272763,0.43903 l -0.358702,0.0262 q -0.02989,-0.17001 -0.149459,-0.26716 -0.119567,-0.099 -0.34002,-0.099 -0.295182,0 -0.433431,0.18309 -0.136382,0.18309 -0.136382,0.59223 0,0.41475 0.136382,0.60718 0.138249,0.19056 0.431563,0.19056 0.20177,0 0.334415,-0.099 0.132645,-0.099 0.164405,-0.30265 l 0.354966,0.0224 q -0.02429,0.17935 -0.136382,0.32694 -0.110226,0.14572 -0.293313,0.22979 -0.183088,0.0822 -0.409145,0.0822 -0.457719,0 -0.696854,-0.26903 -0.239134,-0.26903 -0.239134,-0.78092 z"
         style="font-size:3.82615614px;fill:#ffffff;fill-opacity:1;stroke-width:0.06673528px"
         id="path7600" />
      <path
         d="m 69.571029,269.11132 v -0.26529 h 0.317601 l 0.108358,-0.52685 h 0.224189 v 0.52685 h 0.80708 v 0.26529 h -0.80708 v 1.21809 q 0,0.14759 0.07847,0.21858 0.08033,0.071 0.261554,0.071 0.250344,0 0.554867,-0.0635 v 0.25594 q -0.315733,0.0859 -0.62586,0.0859 -0.302655,0 -0.453983,-0.12704 -0.151327,-0.1289 -0.151327,-0.4054 v -1.25359 z"
         style="font-size:3.82615614px;fill:#ffffff;fill-opacity:1;stroke-width:0.06673528px"
         id="path7602" />
    </g>
  </g>
</svg>
